<svg width="56" height="56" viewBox="0 0 56 56" fill="none" xmlns="http://www.w3.org/2000/svg">
<path d="M8 16C8 14.8954 8.89543 14 10 14H46C47.1046 14 48 14.8954 48 16V44C48 45.1046 47.1046 46 46 46H10C8.89543 46 8 45.1046 8 44V16Z" fill="url(#paint0_linear_679_12414)"/>
<path fill-rule="evenodd" clip-rule="evenodd" d="M20 14V12C20 9.79086 21.7909 8 24 8H32C34.2091 8 36 9.79086 36 12V14H46C47.1046 14 48 14.8954 48 16V26.5843C48 27.5029 47.3731 28.3052 46.4796 28.5185C32.765 31.7934 24.174 31.8644 9.53818 28.5077C8.63579 28.3007 8 27.4945 8 26.5686V16C8 14.8954 8.89543 14 10 14H20ZM24 12H32V14H24V12Z" fill="url(#paint1_linear_679_12414)" style="mix-blend-mode:plus-lighter"/>
<defs>
<linearGradient id="paint0_linear_679_12414" x1="48.5958" y1="45.1933" x2="32.1376" y2="7.37765" gradientUnits="userSpaceOnUse">
<stop stop-color="#FF5C00" stop-opacity="0.8"/>
<stop offset="1" stop-color="#FF5C00" stop-opacity="0.2"/>
</linearGradient>
<linearGradient id="paint1_linear_679_12414" x1="52" y1="31" x2="36.4338" y2="-4.47615" gradientUnits="userSpaceOnUse">
<stop stop-color="white" stop-opacity="0.7"/>
<stop offset="1" stop-color="white" stop-opacity="0.2"/>
</linearGradient>
</defs>
</svg>
