<svg width="56" height="56" viewBox="0 0 56 56" fill="none" xmlns="http://www.w3.org/2000/svg">
<path fill-rule="evenodd" clip-rule="evenodd" d="M9 10C7.89543 10 7 10.8954 7 12V47C7 48.1046 7.89543 49 9 49H28L49 28V12C49 10.8954 48.1046 10 47 10H9Z" fill="url(#paint0_linear_679_12457)"/>
<path d="M30 44C30 46.5 29 48 28 49L49 28C48 29 46 30 44 30H32C30.8954 30 30 30.8954 30 32V44Z" fill="url(#paint1_linear_679_12457)" style="mix-blend-mode:plus-lighter"/>
<rect x="15" y="6" width="4" height="8" rx="2" fill="url(#paint2_linear_679_12457)" style="mix-blend-mode:plus-lighter"/>
<rect x="37" y="6" width="4" height="8" rx="2" fill="url(#paint3_linear_679_12457)" style="mix-blend-mode:plus-lighter"/>
<defs>
<linearGradient id="paint0_linear_679_12457" x1="47.8235" y1="49" x2="24.0648" y2="6.58757" gradientUnits="userSpaceOnUse">
<stop stop-color="#FF5C00" stop-opacity="0.8"/>
<stop offset="1" stop-color="#FF5C00" stop-opacity="0.2"/>
</linearGradient>
<linearGradient id="paint1_linear_679_12457" x1="49" y1="49" x2="29.9785" y2="26.3392" gradientUnits="userSpaceOnUse">
<stop stop-color="white" stop-opacity="0.7"/>
<stop offset="1" stop-color="white" stop-opacity="0.2"/>
</linearGradient>
<linearGradient id="paint2_linear_679_12457" x1="19" y1="14" x2="12.5303" y2="10.1462" gradientUnits="userSpaceOnUse">
<stop stop-color="white" stop-opacity="0.7"/>
<stop offset="1" stop-color="white" stop-opacity="0.2"/>
</linearGradient>
<linearGradient id="paint3_linear_679_12457" x1="41" y1="14" x2="34.5303" y2="10.1462" gradientUnits="userSpaceOnUse">
<stop stop-color="white" stop-opacity="0.7"/>
<stop offset="1" stop-color="white" stop-opacity="0.2"/>
</linearGradient>
</defs>
</svg>
