<svg width="56" height="56" viewBox="0 0 56 56" fill="none" xmlns="http://www.w3.org/2000/svg">
<path d="M50 36.5L38.7931 38.1603C37.585 38.3393 36.4879 37.3647 35.9466 36.2699C33.9521 32.2366 26.9366 29 21 29H6C4.89543 29 4 29.8954 4 31V41.12C4 42.2246 4.89543 43.12 6 43.12H19.1944C19.397 43.12 19.5983 43.1508 19.7916 43.2112L32.9687 47.3338C33.3163 47.4425 33.687 47.4543 34.0408 47.3678L52.5685 42.8388C54.5829 42.3464 56.2685 40.4231 55.3825 38.5482C54.4334 36.5396 52.4647 36.1479 50 36.5Z" fill="url(#paint0_linear_524_14549)"/>
<path d="M42.4759 29.6875C42.187 29.8772 41.813 29.8772 41.524 29.6875V29.6875C39.2617 28.1995 36.3992 26.5177 34.2792 24.0458C32.0449 21.4417 30.973 18.7672 31.0005 15.8687C31.0338 12.6323 33.6689 10 36.8746 10C38.2308 10 39.3448 10.4144 40.2242 10.9608C41.2756 11.6142 42.7244 11.6142 43.7758 10.9608C44.6551 10.4144 45.7691 10 47.1253 10C50.331 10 52.9661 12.6323 52.9994 15.8672C53.029 18.7672 51.9571 21.4401 49.7207 24.0443C47.6007 26.5177 44.7382 28.1995 42.4759 29.6875V29.6875Z" fill="url(#paint1_linear_524_14549)" style="mix-blend-mode:plus-lighter"/>
<rect x="2" y="25" width="15" height="22" rx="2" fill="url(#paint2_linear_524_14549)" style="mix-blend-mode:plus-lighter"/>
<defs>
<linearGradient id="paint0_linear_524_14549" x1="49.5" y1="50.5" x2="35.9205" y2="16.3187" gradientUnits="userSpaceOnUse">
<stop stop-color="#FF5C00" stop-opacity="0.8"/>
<stop offset="1" stop-color="#FF5C00" stop-opacity="0.2"/>
</linearGradient>
<linearGradient id="paint1_linear_524_14549" x1="53" y1="30" x2="35.2584" y2="6.75043" gradientUnits="userSpaceOnUse">
<stop stop-color="white" stop-opacity="0.7"/>
<stop offset="1" stop-color="white" stop-opacity="0.2"/>
</linearGradient>
<linearGradient id="paint2_linear_524_14549" x1="17" y1="47" x2="-2.80378" y2="30.914" gradientUnits="userSpaceOnUse">
<stop stop-color="white" stop-opacity="0.7"/>
<stop offset="1" stop-color="white" stop-opacity="0.2"/>
</linearGradient>
</defs>
</svg>
