<svg width="56" height="56" viewBox="0 0 56 56" fill="none" xmlns="http://www.w3.org/2000/svg">
<path d="M3 41.414C3 41.0164 3.13764 40.5117 3.41292 39.9L14.6077 14.62C15.4335 12.7543 16.8099 11.8214 18.7369 11.8214H19.1498C21.0462 11.8214 22.4073 12.7543 23.2331 14.62L34.4279 39.9C34.6726 40.4506 34.7949 40.9247 34.7949 41.3223C34.7949 42.2705 34.4738 43.081 33.8314 43.7539C33.1891 44.3962 32.3939 44.7174 31.4457 44.7174C29.8858 44.7174 28.754 43.9069 28.0505 42.2858L25.8942 37.2389H11.7631L9.51498 42.5152C8.87266 43.9833 7.78683 44.7174 6.25749 44.7174C5.33989 44.7174 4.55992 44.3962 3.9176 43.7539C3.30587 43.1116 3 42.3316 3 41.414ZM14.3783 30.9992H23.279L18.8286 20.4009L14.3783 30.9992Z" fill="url(#paint0_linear_524_14582)"/>
<path d="M37.8228 44.9009C35.4064 44.9009 33.3877 44.2433 31.7666 42.9281C30.1761 41.5823 29.3809 39.7318 29.3809 37.3766V37.2848C29.3809 34.6849 30.2679 32.7274 32.0419 31.4122C33.8465 30.0969 36.2629 29.4393 39.291 29.4393C41.3403 29.4393 43.3437 29.7758 45.3013 30.4487V30.0358C45.3013 27.0383 43.5425 25.5395 40.025 25.5395C38.2816 25.5395 36.6758 25.7689 35.2076 26.2277C34.8406 26.3501 34.5041 26.4112 34.1983 26.4112C33.403 26.4112 32.7148 26.1359 32.1337 25.5854C31.5831 25.0348 31.3078 24.3619 31.3078 23.5667C31.3078 22.9549 31.4761 22.4044 31.8125 21.915C32.1795 21.4256 32.6383 21.0738 33.1889 20.8597C35.4829 20.0033 38.0981 19.5751 41.0344 19.5751C44.7354 19.5751 47.5035 20.4927 49.3387 22.3279C51.1127 24.1019 51.9998 26.7171 51.9998 30.1734V41.3682C51.9998 42.3163 51.6633 43.1116 50.9904 43.7539C50.3481 44.3962 49.5528 44.7174 48.6046 44.7174C47.6259 44.7174 46.8153 44.4268 46.173 43.8457C45.5613 43.2645 45.2554 42.5916 45.2554 41.827V41.7811C43.3896 43.861 40.9121 44.9009 37.8228 44.9009ZM39.9333 40.0835C41.5544 40.0835 42.8696 39.6859 43.879 38.8906C44.8883 38.0648 45.393 37.0248 45.393 35.7708V34.532C44.0778 33.9203 42.5943 33.6144 40.9427 33.6144C39.4439 33.6144 38.2663 33.905 37.4099 34.4861C36.5535 35.0673 36.1252 35.9084 36.1252 37.0095V37.1013C36.1252 38.0189 36.477 38.753 37.1805 39.3035C37.884 39.8235 38.8016 40.0835 39.9333 40.0835Z" fill="url(#paint1_linear_524_14582)" style="mix-blend-mode:plus-lighter"/>
<defs>
<linearGradient id="paint0_linear_524_14582" x1="36.9054" y1="44.4421" x2="18.9036" y2="11.619" gradientUnits="userSpaceOnUse">
<stop stop-color="#FF5C00" stop-opacity="0.8"/>
<stop offset="1" stop-color="#FF5C00" stop-opacity="0.2"/>
</linearGradient>
<linearGradient id="paint1_linear_524_14582" x1="50.6692" y1="44.4421" x2="21.5127" y2="19.6314" gradientUnits="userSpaceOnUse">
<stop stop-color="white" stop-opacity="0.7"/>
<stop offset="1" stop-color="white" stop-opacity="0.2"/>
</linearGradient>
</defs>
</svg>
