<svg width="56" height="56" viewBox="0 0 56 56" fill="none" xmlns="http://www.w3.org/2000/svg">
<path d="M37.5 27.5556C41.7802 27.5556 45.25 24.0733 45.25 19.7778C45.25 15.4822 41.7802 12 37.5 12C33.2198 12 29.75 15.4822 29.75 19.7778C29.75 24.0733 33.2198 27.5556 37.5 27.5556Z" fill="url(#paint0_linear_524_14486)"/>
<path d="M37.5 31.4444C29.5398 31.4444 22.9716 37.3842 22.0133 45.0594C21.8802 46.1251 22.7664 47 23.8439 47H51.1561C52.2336 47 53.1198 46.1251 52.9867 45.0594C52.0284 37.3842 45.4602 31.4444 37.5 31.4444Z" fill="url(#paint1_linear_524_14486)"/>
<path d="M17.5 27.5556C21.7802 27.5556 25.25 24.0733 25.25 19.7778C25.25 15.4822 21.7802 12 17.5 12C13.2198 12 9.75 15.4822 9.75 19.7778C9.75 24.0733 13.2198 27.5556 17.5 27.5556Z" fill="url(#paint2_linear_524_14486)" style="mix-blend-mode:plus-lighter"/>
<path d="M17.5 31.4444C9.53984 31.4444 2.97157 37.3842 2.01327 45.0594C1.88021 46.1251 2.76644 47 3.84388 47H31.1561C32.2336 47 33.1198 46.1251 32.9867 45.0594C32.0284 37.3842 25.4602 31.4444 17.5 31.4444Z" fill="url(#paint3_linear_524_14486)" style="mix-blend-mode:plus-lighter"/>
<defs>
<linearGradient id="paint0_linear_524_14486" x1="53" y1="47" x2="31.3909" y2="10.184" gradientUnits="userSpaceOnUse">
<stop stop-color="#FF5C00" stop-opacity="0.8"/>
<stop offset="1" stop-color="#FF5C00" stop-opacity="0.2"/>
</linearGradient>
<linearGradient id="paint1_linear_524_14486" x1="53" y1="47" x2="31.3909" y2="10.184" gradientUnits="userSpaceOnUse">
<stop stop-color="#FF5C00" stop-opacity="0.8"/>
<stop offset="1" stop-color="#FF5C00" stop-opacity="0.2"/>
</linearGradient>
<linearGradient id="paint2_linear_524_14486" x1="33" y1="47" x2="0.856836" y2="13.0834" gradientUnits="userSpaceOnUse">
<stop stop-color="white" stop-opacity="0.7"/>
<stop offset="1" stop-color="white" stop-opacity="0.2"/>
</linearGradient>
<linearGradient id="paint3_linear_524_14486" x1="33" y1="47" x2="0.856836" y2="13.0834" gradientUnits="userSpaceOnUse">
<stop stop-color="white" stop-opacity="0.7"/>
<stop offset="1" stop-color="white" stop-opacity="0.2"/>
</linearGradient>
</defs>
</svg>
