<svg width="56" height="56" viewBox="0 0 56 56" fill="none" xmlns="http://www.w3.org/2000/svg">
<path fill-rule="evenodd" clip-rule="evenodd" d="M13 6C13 4.89543 13.8954 4 15 4H15.1179C17.4649 4 19.4959 5.63238 20.0008 7.92439L20.2378 9H38C41.655 9 44.9828 10.4006 47.4761 12.6943C47.8066 12.2122 48 11.6287 48 11C48 9.34315 46.6569 8 45 8C43.8954 8 43 7.10457 43 6C43 4.89543 43.8954 4 45 4C48.866 4 52 7.13401 52 11C52 12.8855 51.2545 14.5969 50.0423 15.8555C51.2858 17.947 52 20.3901 52 23V30C52 35.1325 49.4222 39.663 45.4907 42.3673C44.2942 43.1903 43.2982 44.3209 42.9207 45.7231L42.4962 47.2999C41.9084 49.4829 39.9289 51 37.6681 51H36C34.8954 51 34 50.1046 34 49V45H26V49C26 50.1046 25.1046 51 24 51H22.3319C20.0711 51 18.0916 49.4829 17.5038 47.2999C17.0464 45.6009 15.6837 44.3383 14.1483 43.479C12.4134 42.5081 10.9443 41.1188 9.87765 39.4478L4.89635 34.7778C3.68645 33.6435 3 32.0591 3 30.4006V22C3 20.8954 3.89543 20 5 20H8C8 16.1384 9.98979 12.7416 13 10.7789V6ZM24 17C24 15.8954 24.8954 15 26 15H34C35.1046 15 36 15.8954 36 17C36 18.1046 35.1046 19 34 19H26C24.8954 19 24 18.1046 24 17Z" fill="url(#paint0_linear_679_4289)"/>
<circle cx="30" cy="9" r="8" fill="url(#paint1_linear_679_4289)" style="mix-blend-mode:plus-lighter"/>
<defs>
<linearGradient id="paint0_linear_679_4289" x1="52" y1="51" x2="-6.05668" y2="28.7416" gradientUnits="userSpaceOnUse">
<stop stop-color="#FF5C00" stop-opacity="0.8"/>
<stop offset="1" stop-color="#FF5C00" stop-opacity="0.2"/>
</linearGradient>
<linearGradient id="paint1_linear_679_4289" x1="36" y1="14.5" x2="23.2757" y2="-0.110961" gradientUnits="userSpaceOnUse">
<stop stop-color="white" stop-opacity="0.7"/>
<stop offset="1" stop-color="white" stop-opacity="0.2"/>
</linearGradient>
</defs>
</svg>
