<svg width="72" height="72" viewBox="0 0 72 72" fill="none" xmlns="http://www.w3.org/2000/svg">
<path d="M0 36C0 16.1182 16.1182 0 36 0C55.8818 0 72 16.1182 72 36C72 55.8818 55.8818 72 36 72C16.1182 72 0 55.8818 0 36Z" fill="url(#paint0_linear_339_63500)"/>
<path d="M29.5723 48.1003V23.8997C29.5723 23.068 30.5286 22.5998 31.1856 23.1099L46.7689 35.2101C47.2845 35.6105 47.2845 36.3895 46.7689 36.7898L31.1856 48.8902C30.5286 49.4003 29.5723 48.9321 29.5723 48.1003Z" fill="url(#paint1_linear_339_63500)" style="mix-blend-mode:plus-lighter"/>
<defs>
<linearGradient id="paint0_linear_339_63500" x1="73.0725" y1="70.1849" x2="30.5892" y2="-7.90496" gradientUnits="userSpaceOnUse">
<stop stop-color="#FF5C00" stop-opacity="0.8"/>
<stop offset="1" stop-color="#FF5C00" stop-opacity="0.2"/>
</linearGradient>
<linearGradient id="paint1_linear_339_63500" x1="47.5723" y1="36" x2="27.1853" y2="27.7696" gradientUnits="userSpaceOnUse">
<stop stop-color="white" stop-opacity="0.7"/>
<stop offset="1" stop-color="white" stop-opacity="0.2"/>
</linearGradient>
</defs>
</svg>
