<svg width="491" height="398" viewBox="0 0 491 398" fill="none" xmlns="http://www.w3.org/2000/svg">
<mask id="mask0_997_524" style="mask-type:alpha" maskUnits="userSpaceOnUse" x="0" y="0" width="491" height="398">
<rect width="491" height="398" rx="6" fill="white"/>
</mask>
<g mask="url(#mask0_997_524)">
<path opacity="0.6" d="M353.633 199.831C353.633 260.378 305.116 309.451 245.279 309.451C185.441 309.451 136.924 260.378 136.924 199.831C136.924 139.284 185.441 90.2104 245.279 90.2104C305.116 90.2104 353.633 139.284 353.633 199.831Z" stroke="#98A2AF"/>
<path opacity="0.6" d="M398.99 199.831C398.99 285.719 330.166 355.335 245.279 355.335C160.392 355.335 91.5684 285.719 91.5684 199.831C91.5684 113.943 160.392 44.3271 245.279 44.3271C330.166 44.3271 398.99 113.943 398.99 199.831Z" stroke="#98A2AF"/>
<path opacity="0.6" d="M444.346 199.83C444.346 311.059 355.215 401.218 245.279 401.218C135.343 401.218 46.2119 311.059 46.2119 199.83C46.2119 88.6017 135.343 -1.55713 245.279 -1.55713C355.215 -1.55713 444.346 88.6017 444.346 199.83Z" stroke="#98A2AF"/>
<path opacity="0.6" d="M489.703 199.83C489.703 336.4 380.265 447.101 245.28 447.101C110.294 447.101 0.856445 336.4 0.856445 199.83C0.856445 63.2606 110.294 -47.4409 245.28 -47.4409C380.265 -47.4409 489.703 63.2606 489.703 199.83Z" stroke="#98A2AF"/>
<ellipse opacity="0.6" cx="245.28" cy="199.831" rx="63.4986" ry="64.2369" fill="url(#paint0_linear_997_524)"/>
<rect x="218.065" y="182.558" width="54.4274" height="36.2849" rx="2" fill="url(#paint1_linear_997_524)"/>
<path fill-rule="evenodd" clip-rule="evenodd" d="M245.846 214.307C245.846 214.307 245.846 214.307 245.846 214.307V214.307C245.846 214.307 245.846 214.307 245.846 214.307H224.601C223.496 214.307 222.601 213.412 222.601 212.307V180.023C222.601 178.918 223.496 178.023 224.601 178.023H241.846C244.04 178.023 245.822 179.79 245.845 181.978C245.869 179.79 247.651 178.022 249.845 178.022H267.09C268.195 178.022 269.09 178.918 269.09 180.022V212.307C269.09 213.412 268.195 214.307 267.09 214.307H245.846Z" fill="url(#paint2_linear_997_524)" style="mix-blend-mode:plus-lighter"/>
</g>
<defs>
<linearGradient id="paint0_linear_997_524" x1="308.778" y1="264.068" x2="192.067" y2="126.846" gradientUnits="userSpaceOnUse">
<stop stop-color="#FF5C00" stop-opacity="0.8"/>
<stop offset="1" stop-color="#FF5C00" stop-opacity="0.2"/>
</linearGradient>
<linearGradient id="paint1_linear_997_524" x1="272.493" y1="218.843" x2="244.006" y2="168.019" gradientUnits="userSpaceOnUse">
<stop stop-color="#FF5C00" stop-opacity="0.8"/>
<stop offset="1" stop-color="#FF5C00" stop-opacity="0.2"/>
</linearGradient>
<linearGradient id="paint2_linear_997_524" x1="269.09" y1="214.307" x2="238.496" y2="167.609" gradientUnits="userSpaceOnUse">
<stop stop-color="white" stop-opacity="0.7"/>
<stop offset="1" stop-color="white" stop-opacity="0.2"/>
</linearGradient>
</defs>
</svg>
