<svg width="16" height="16" viewBox="0 0 16 16" fill="none" xmlns="http://www.w3.org/2000/svg">
<g clip-path="url(#clip0_11024_21811)">
<path d="M12.9199 6.50516C12.9199 6.7813 13.1438 7.00516 13.4199 7.00516C13.6961 7.00516 13.9199 6.7813 13.9199 6.50516V1.9856C13.9214 1.85568 13.8726 1.72528 13.7735 1.62615C13.6944 1.54709 13.5955 1.50004 13.4927 1.485C13.4688 1.48147 13.4444 1.47967 13.4199 1.47967L8.89443 1.47967C8.61828 1.47967 8.39443 1.70353 8.39443 1.97967C8.39443 2.25582 8.61828 2.47967 8.89443 2.47967L12.2129 2.47967L5.02551 9.66704C4.83025 9.8623 4.83025 10.1789 5.02551 10.3741C5.22077 10.5694 5.53735 10.5694 5.73262 10.3741L12.9199 3.18685L12.9199 6.50516Z" fill="#AAB2B3"/>
<path fill-rule="evenodd" clip-rule="evenodd" d="M2.5 11.5C2.77614 11.5 3 11.7239 3 12L3 13.5L11 13.5V12C11 11.7239 11.2239 11.5 11.5 11.5C11.7761 11.5 12 11.7239 12 12V14C12 14.2761 11.7761 14.5 11.5 14.5L2.5 14.5C2.22386 14.5 2 14.2761 2 14L2 12C2 11.7239 2.22386 11.5 2.5 11.5Z" fill="#AAB2B3"/>
</g>
<defs>
<clipPath id="clip0_11024_21811">
<rect width="16" height="16" fill="white"/>
</clipPath>
</defs>
</svg>
