<svg width="16" height="16" viewBox="0 0 16 16" fill="none" xmlns="http://www.w3.org/2000/svg">
<path fill-rule="evenodd" clip-rule="evenodd" d="M5 2.5C5 2.77614 4.77614 3 4.5 3L3 3L3 13L4.5 13C4.77614 13 5 13.2239 5 13.5C5 13.7761 4.77614 14 4.5 14L2.5 14C2.22386 14 2 13.7761 2 13.5L2 2.5C2 2.22386 2.22386 2 2.5 2L4.5 2C4.77614 2 5 2.22386 5 2.5Z" fill="#AAB2B3"/>
<path d="M5.5 7.5C5.22386 7.5 5 7.72386 5 8C5 8.27614 5.22386 8.5 5.5 8.5L13.2929 8.5L11.1464 10.6464C10.9512 10.8417 10.9512 11.1583 11.1464 11.3536C11.3417 11.5488 11.6583 11.5488 11.8536 11.3536L14.8536 8.35355C15.0488 8.15829 15.0488 7.84171 14.8536 7.64645L11.8536 4.64645C11.6583 4.45118 11.3417 4.45118 11.1464 4.64645C10.9512 4.84171 10.9512 5.15829 11.1464 5.35355L13.2929 7.5L5.5 7.5Z" fill="#AAB2B3"/>
</svg>
