<svg width="12" height="12" viewBox="0 0 12 12" fill="none" xmlns="http://www.w3.org/2000/svg">
<path d="M4.08943 5.89806C4.02611 5.81531 3.95725 5.73694 3.88332 5.66352H3.88502C3.61086 5.38908 3.27647 5.18238 2.90845 5.05984L2 4.77078L2.91469 4.4732C3.27667 4.34784 3.60498 4.14091 3.87424 3.86839C4.14233 3.59414 4.34446 3.26243 4.46529 2.89842L4.7577 2L5.05067 2.90126C5.17293 3.26869 5.37937 3.60244 5.65353 3.87587C5.92769 4.14929 6.26196 4.35482 6.62967 4.47604L7.54947 4.77249L6.6467 5.06495C6.27972 5.18701 5.94626 5.39302 5.67284 5.66659C5.39943 5.94017 5.19358 6.27377 5.07168 6.64087L4.77928 7.53929L4.48687 6.63917C4.39759 6.37111 4.26317 6.12084 4.08943 5.89806ZM8.07012 9.02946C8.29321 9.10884 8.49567 9.23723 8.66261 9.40519C8.82956 9.57314 8.95673 9.7764 9.03478 10C9.11364 9.77735 9.24123 9.57512 9.40822 9.40809C9.57521 9.24106 9.77739 9.11345 10 9.03457C9.77543 8.95579 9.5713 8.82782 9.40253 8.65999C9.23377 8.49217 9.10463 8.28875 9.02456 8.0646C8.94617 8.28581 8.81993 8.48698 8.65485 8.65377C8.48977 8.82055 8.29048 8.94883 8.07012 9.02946Z" stroke="#AAB2B3" stroke-linejoin="round"/>
</svg>
